<svg width="493" height="47" viewBox="0 0 493 47" fill="none" xmlns="http://www.w3.org/2000/svg">
<path d="M191.141 14.2188C189.453 15.3438 187.484 16.1875 185.234 16.75C182.984 17.3125 180.641 17.7812 178.203 18.1562C175.766 18.5312 173.328 19 170.891 19.5625C168.641 20.125 166.578 20.9688 164.703 22.0938L157.391 20.6875L156.828 22.9375C154.578 21.0625 152.141 20.2188 149.516 20.4062C146.891 20.7812 144.172 21.3438 141.359 22.0938C138.547 22.8438 135.828 23.3125 133.203 23.5C130.578 23.875 128.141 23.0312 125.891 20.9688C121.578 22.4688 117.172 23.125 112.672 22.9375C108.172 22.75 103.672 22.5625 99.1719 22.375C97.8594 22.5625 96.4531 22.5625 94.9531 22.375C93.6406 22.1875 92.3281 22.0938 91.0156 22.0938C88.9531 22.0938 86.9844 22.1875 85.1094 22.375C83.4219 22.75 81.5469 22.8438 79.4844 22.6562C77.0469 22.6562 74.6094 22.4688 72.1719 22.0938C69.9219 21.7188 67.5781 21.5312 65.1406 21.5312C64.0156 21.5312 62.8906 21.5312 61.7656 21.5312C60.8281 21.7188 59.7969 21.7188 58.6719 21.5312C54.7344 21.3438 51.0781 21.1562 47.7031 20.9688C44.3281 20.7812 40.5781 21.25 36.4531 22.375C33.2656 21.0625 30.0781 20.3125 26.8906 20.125C23.7031 19.9375 20.5156 19.9375 17.3281 20.125C14.1406 20.3125 11.1406 20.3125 8.32812 20.125C5.32813 20.125 2.60938 19.375 0.171875 17.875C0.171875 16.1875 0.734375 14.7812 1.85938 13.6562C2.79688 12.3438 3.92188 11.2188 5.23438 10.2812C6.54687 9.34375 7.95312 8.59375 9.45312 8.03125C10.9531 7.28125 12.2656 6.4375 13.3906 5.5C15.6406 7.1875 17.9844 7.9375 20.4219 7.75C22.6719 7.5625 25.0156 7 27.4531 6.0625C29.7031 4.9375 31.9531 3.90625 34.2031 2.96875C36.4531 2.03125 38.7031 1.75 40.9531 2.125C42.2656 2.3125 43.2031 2.59375 43.7656 2.96875C44.3281 3.34375 45.0781 3.71875 46.0156 4.09375C48.8281 5.21875 52.1094 5.78125 55.8594 5.78125C59.6094 5.59375 63.5469 5.21875 67.6719 4.65625C71.7969 3.90625 75.8281 3.15625 79.7656 2.40625C83.7031 1.65625 87.2656 1.28125 90.4531 1.28125L98.6094 4.65625L99.4531 2.125C102.453 2.875 105.453 3.15625 108.453 2.96875C111.641 2.78125 114.734 2.6875 117.734 2.6875C120.922 2.5 124.016 2.6875 127.016 3.25C130.016 3.625 132.922 4.75 135.734 6.625C139.297 4.1875 142.859 2.59375 146.422 1.84375C149.984 0.90625 153.547 0.53125 157.109 0.71875C160.672 0.90625 164.234 1.46875 167.797 2.40625C171.547 3.15625 175.297 3.90625 179.047 4.65625C182.234 2.40625 185.422 1.9375 188.609 3.25C188.797 4.1875 189.266 5.125 190.016 6.0625C190.953 7 191.703 7.9375 192.266 8.875C192.828 9.625 193.109 10.4688 193.109 11.4062C193.109 12.3438 192.453 13.2812 191.141 14.2188ZM341.047 14.2188C339.359 15.3438 337.391 16.1875 335.141 16.75C332.891 17.3125 330.547 17.7812 328.109 18.1562C325.672 18.5312 323.234 19 320.797 19.5625C318.547 20.125 316.484 20.9688 314.609 22.0938L307.297 20.6875L306.734 22.9375C304.484 21.0625 302.047 20.2188 299.422 20.4062C296.797 20.7812 294.078 21.3438 291.266 22.0938C288.453 22.8438 285.734 23.3125 283.109 23.5C280.484 23.875 278.047 23.0312 275.797 20.9688C271.484 22.4688 267.078 23.125 262.578 22.9375C258.078 22.75 253.578 22.5625 249.078 22.375C247.766 22.5625 246.359 22.5625 244.859 22.375C243.547 22.1875 242.234 22.0938 240.922 22.0938C238.859 22.0938 236.891 22.1875 235.016 22.375C233.328 22.75 231.453 22.8438 229.391 22.6562C226.953 22.6562 224.516 22.4688 222.078 22.0938C219.828 21.7188 217.484 21.5312 215.047 21.5312C213.922 21.5312 212.797 21.5312 211.672 21.5312C210.734 21.7188 209.703 21.7188 208.578 21.5312C204.641 21.3438 200.984 21.1562 197.609 20.9688C194.234 20.7812 190.484 21.25 186.359 22.375C183.172 21.0625 179.984 20.3125 176.797 20.125C173.609 19.9375 170.422 19.9375 167.234 20.125C164.047 20.3125 161.047 20.3125 158.234 20.125C155.234 20.125 152.516 19.375 150.078 17.875C150.078 16.1875 150.641 14.7812 151.766 13.6562C152.703 12.3438 153.828 11.2188 155.141 10.2812C156.453 9.34375 157.859 8.59375 159.359 8.03125C160.859 7.28125 162.172 6.4375 163.297 5.5C165.547 7.1875 167.891 7.9375 170.328 7.75C172.578 7.5625 174.922 7 177.359 6.0625C179.609 4.9375 181.859 3.90625 184.109 2.96875C186.359 2.03125 188.609 1.75 190.859 2.125C192.172 2.3125 193.109 2.59375 193.672 2.96875C194.234 3.34375 194.984 3.71875 195.922 4.09375C198.734 5.21875 202.016 5.78125 205.766 5.78125C209.516 5.59375 213.453 5.21875 217.578 4.65625C221.703 3.90625 225.734 3.15625 229.672 2.40625C233.609 1.65625 237.172 1.28125 240.359 1.28125L248.516 4.65625L249.359 2.125C252.359 2.875 255.359 3.15625 258.359 2.96875C261.547 2.78125 264.641 2.6875 267.641 2.6875C270.828 2.5 273.922 2.6875 276.922 3.25C279.922 3.625 282.828 4.75 285.641 6.625C289.203 4.1875 292.766 2.59375 296.328 1.84375C299.891 0.90625 303.453 0.53125 307.016 0.71875C310.578 0.90625 314.141 1.46875 317.703 2.40625C321.453 3.15625 325.203 3.90625 328.953 4.65625C332.141 2.40625 335.328 1.9375 338.516 3.25C338.703 4.1875 339.172 5.125 339.922 6.0625C340.859 7 341.609 7.9375 342.172 8.875C342.734 9.625 343.016 10.4688 343.016 11.4062C343.016 12.3438 342.359 13.2812 341.047 14.2188ZM490.953 14.2188C489.266 15.3438 487.297 16.1875 485.047 16.75C482.797 17.3125 480.453 17.7812 478.016 18.1562C475.578 18.5312 473.141 19 470.703 19.5625C468.453 20.125 466.391 20.9688 464.516 22.0938L457.203 20.6875L456.641 22.9375C454.391 21.0625 451.953 20.2188 449.328 20.4062C446.703 20.7812 443.984 21.3438 441.172 22.0938C438.359 22.8438 435.641 23.3125 433.016 23.5C430.391 23.875 427.953 23.0312 425.703 20.9688C421.391 22.4688 416.984 23.125 412.484 22.9375C407.984 22.75 403.484 22.5625 398.984 22.375C397.672 22.5625 396.266 22.5625 394.766 22.375C393.453 22.1875 392.141 22.0938 390.828 22.0938C388.766 22.0938 386.797 22.1875 384.922 22.375C383.234 22.75 381.359 22.8438 379.297 22.6562C376.859 22.6562 374.422 22.4688 371.984 22.0938C369.734 21.7188 367.391 21.5312 364.953 21.5312C363.828 21.5312 362.703 21.5312 361.578 21.5312C360.641 21.7188 359.609 21.7188 358.484 21.5312C354.547 21.3438 350.891 21.1562 347.516 20.9688C344.141 20.7812 340.391 21.25 336.266 22.375C333.078 21.0625 329.891 20.3125 326.703 20.125C323.516 19.9375 320.328 19.9375 317.141 20.125C313.953 20.3125 310.953 20.3125 308.141 20.125C305.141 20.125 302.422 19.375 299.984 17.875C299.984 16.1875 300.547 14.7812 301.672 13.6562C302.609 12.3438 303.734 11.2188 305.047 10.2812C306.359 9.34375 307.766 8.59375 309.266 8.03125C310.766 7.28125 312.078 6.4375 313.203 5.5C315.453 7.1875 317.797 7.9375 320.234 7.75C322.484 7.5625 324.828 7 327.266 6.0625C329.516 4.9375 331.766 3.90625 334.016 2.96875C336.266 2.03125 338.516 1.75 340.766 2.125C342.078 2.3125 343.016 2.59375 343.578 2.96875C344.141 3.34375 344.891 3.71875 345.828 4.09375C348.641 5.21875 351.922 5.78125 355.672 5.78125C359.422 5.59375 363.359 5.21875 367.484 4.65625C371.609 3.90625 375.641 3.15625 379.578 2.40625C383.516 1.65625 387.078 1.28125 390.266 1.28125L398.422 4.65625L399.266 2.125C402.266 2.875 405.266 3.15625 408.266 2.96875C411.453 2.78125 414.547 2.6875 417.547 2.6875C420.734 2.5 423.828 2.6875 426.828 3.25C429.828 3.625 432.734 4.75 435.547 6.625C439.109 4.1875 442.672 2.59375 446.234 1.84375C449.797 0.90625 453.359 0.53125 456.922 0.71875C460.484 0.90625 464.047 1.46875 467.609 2.40625C471.359 3.15625 475.109 3.90625 478.859 4.65625C482.047 2.40625 485.234 1.9375 488.422 3.25C488.609 4.1875 489.078 5.125 489.828 6.0625C490.766 7 491.516 7.9375 492.078 8.875C492.641 9.625 492.922 10.4688 492.922 11.4062C492.922 12.3438 492.266 13.2812 490.953 14.2188ZM191.141 37.2188C189.453 38.3438 187.484 39.1875 185.234 39.75C182.984 40.3125 180.641 40.7812 178.203 41.1562C175.766 41.5312 173.328 42 170.891 42.5625C168.641 43.125 166.578 43.9688 164.703 45.0938L157.391 43.6875L156.828 45.9375C154.578 44.0625 152.141 43.2188 149.516 43.4062C146.891 43.7812 144.172 44.3438 141.359 45.0938C138.547 45.8438 135.828 46.3125 133.203 46.5C130.578 46.875 128.141 46.0312 125.891 43.9688C121.578 45.4688 117.172 46.125 112.672 45.9375C108.172 45.75 103.672 45.5625 99.1719 45.375C97.8594 45.5625 96.4531 45.5625 94.9531 45.375C93.6406 45.1875 92.3281 45.0938 91.0156 45.0938C88.9531 45.0938 86.9844 45.1875 85.1094 45.375C83.4219 45.75 81.5469 45.8438 79.4844 45.6562C77.0469 45.6562 74.6094 45.4688 72.1719 45.0938C69.9219 44.7188 67.5781 44.5312 65.1406 44.5312C64.0156 44.5312 62.8906 44.5312 61.7656 44.5312C60.8281 44.7188 59.7969 44.7188 58.6719 44.5312C54.7344 44.3438 51.0781 44.1562 47.7031 43.9688C44.3281 43.7812 40.5781 44.25 36.4531 45.375C33.2656 44.0625 30.0781 43.3125 26.8906 43.125C23.7031 42.9375 20.5156 42.9375 17.3281 43.125C14.1406 43.3125 11.1406 43.3125 8.32812 43.125C5.32813 43.125 2.60938 42.375 0.171875 40.875C0.171875 39.1875 0.734375 37.7812 1.85938 36.6562C2.79688 35.3438 3.92188 34.2188 5.23438 33.2812C6.54687 32.3438 7.95312 31.5938 9.45312 31.0312C10.9531 30.2812 12.2656 29.4375 13.3906 28.5C15.6406 30.1875 17.9844 30.9375 20.4219 30.75C22.6719 30.5625 25.0156 30 27.4531 29.0625C29.7031 27.9375 31.9531 26.9062 34.2031 25.9688C36.4531 25.0312 38.7031 24.75 40.9531 25.125C42.2656 25.3125 43.2031 25.5938 43.7656 25.9688C44.3281 26.3438 45.0781 26.7188 46.0156 27.0938C48.8281 28.2188 52.1094 28.7812 55.8594 28.7812C59.6094 28.5938 63.5469 28.2188 67.6719 27.6562C71.7969 26.9062 75.8281 26.1562 79.7656 25.4062C83.7031 24.6562 87.2656 24.2812 90.4531 24.2812L98.6094 27.6562L99.4531 25.125C102.453 25.875 105.453 26.1562 108.453 25.9688C111.641 25.7812 114.734 25.6875 117.734 25.6875C120.922 25.5 124.016 25.6875 127.016 26.25C130.016 26.625 132.922 27.75 135.734 29.625C139.297 27.1875 142.859 25.5938 146.422 24.8438C149.984 23.9062 153.547 23.5312 157.109 23.7188C160.672 23.9062 164.234 24.4688 167.797 25.4062C171.547 26.1562 175.297 26.9062 179.047 27.6562C182.234 25.4062 185.422 24.9375 188.609 26.25C188.797 27.1875 189.266 28.125 190.016 29.0625C190.953 30 191.703 30.9375 192.266 31.875C192.828 32.625 193.109 33.4688 193.109 34.4062C193.109 35.3438 192.453 36.2812 191.141 37.2188ZM341.047 37.2188C339.359 38.3438 337.391 39.1875 335.141 39.75C332.891 40.3125 330.547 40.7812 328.109 41.1562C325.672 41.5312 323.234 42 320.797 42.5625C318.547 43.125 316.484 43.9688 314.609 45.0938L307.297 43.6875L306.734 45.9375C304.484 44.0625 302.047 43.2188 299.422 43.4062C296.797 43.7812 294.078 44.3438 291.266 45.0938C288.453 45.8438 285.734 46.3125 283.109 46.5C280.484 46.875 278.047 46.0312 275.797 43.9688C271.484 45.4688 267.078 46.125 262.578 45.9375C258.078 45.75 253.578 45.5625 249.078 45.375C247.766 45.5625 246.359 45.5625 244.859 45.375C243.547 45.1875 242.234 45.0938 240.922 45.0938C238.859 45.0938 236.891 45.1875 235.016 45.375C233.328 45.75 231.453 45.8438 229.391 45.6562C226.953 45.6562 224.516 45.4688 222.078 45.0938C219.828 44.7188 217.484 44.5312 215.047 44.5312C213.922 44.5312 212.797 44.5312 211.672 44.5312C210.734 44.7188 209.703 44.7188 208.578 44.5312C204.641 44.3438 200.984 44.1562 197.609 43.9688C194.234 43.7812 190.484 44.25 186.359 45.375C183.172 44.0625 179.984 43.3125 176.797 43.125C173.609 42.9375 170.422 42.9375 167.234 43.125C164.047 43.3125 161.047 43.3125 158.234 43.125C155.234 43.125 152.516 42.375 150.078 40.875C150.078 39.1875 150.641 37.7812 151.766 36.6562C152.703 35.3438 153.828 34.2188 155.141 33.2812C156.453 32.3438 157.859 31.5938 159.359 31.0312C160.859 30.2812 162.172 29.4375 163.297 28.5C165.547 30.1875 167.891 30.9375 170.328 30.75C172.578 30.5625 174.922 30 177.359 29.0625C179.609 27.9375 181.859 26.9062 184.109 25.9688C186.359 25.0312 188.609 24.75 190.859 25.125C192.172 25.3125 193.109 25.5938 193.672 25.9688C194.234 26.3438 194.984 26.7188 195.922 27.0938C198.734 28.2188 202.016 28.7812 205.766 28.7812C209.516 28.5938 213.453 28.2188 217.578 27.6562C221.703 26.9062 225.734 26.1562 229.672 25.4062C233.609 24.6562 237.172 24.2812 240.359 24.2812L248.516 27.6562L249.359 25.125C252.359 25.875 255.359 26.1562 258.359 25.9688C261.547 25.7812 264.641 25.6875 267.641 25.6875C270.828 25.5 273.922 25.6875 276.922 26.25C279.922 26.625 282.828 27.75 285.641 29.625C289.203 27.1875 292.766 25.5938 296.328 24.8438C299.891 23.9062 303.453 23.5312 307.016 23.7188C310.578 23.9062 314.141 24.4688 317.703 25.4062C321.453 26.1562 325.203 26.9062 328.953 27.6562C332.141 25.4062 335.328 24.9375 338.516 26.25C338.703 27.1875 339.172 28.125 339.922 29.0625C340.859 30 341.609 30.9375 342.172 31.875C342.734 32.625 343.016 33.4688 343.016 34.4062C343.016 35.3438 342.359 36.2812 341.047 37.2188ZM490.953 37.2188C489.266 38.3438 487.297 39.1875 485.047 39.75C482.797 40.3125 480.453 40.7812 478.016 41.1562C475.578 41.5312 473.141 42 470.703 42.5625C468.453 43.125 466.391 43.9688 464.516 45.0938L457.203 43.6875L456.641 45.9375C454.391 44.0625 451.953 43.2188 449.328 43.4062C446.703 43.7812 443.984 44.3438 441.172 45.0938C438.359 45.8438 435.641 46.3125 433.016 46.5C430.391 46.875 427.953 46.0312 425.703 43.9688C421.391 45.4688 416.984 46.125 412.484 45.9375C407.984 45.75 403.484 45.5625 398.984 45.375C397.672 45.5625 396.266 45.5625 394.766 45.375C393.453 45.1875 392.141 45.0938 390.828 45.0938C388.766 45.0938 386.797 45.1875 384.922 45.375C383.234 45.75 381.359 45.8438 379.297 45.6562C376.859 45.6562 374.422 45.4688 371.984 45.0938C369.734 44.7188 367.391 44.5312 364.953 44.5312C363.828 44.5312 362.703 44.5312 361.578 44.5312C360.641 44.7188 359.609 44.7188 358.484 44.5312C354.547 44.3438 350.891 44.1562 347.516 43.9688C344.141 43.7812 340.391 44.25 336.266 45.375C333.078 44.0625 329.891 43.3125 326.703 43.125C323.516 42.9375 320.328 42.9375 317.141 43.125C313.953 43.3125 310.953 43.3125 308.141 43.125C305.141 43.125 302.422 42.375 299.984 40.875C299.984 39.1875 300.547 37.7812 301.672 36.6562C302.609 35.3438 303.734 34.2188 305.047 33.2812C306.359 32.3438 307.766 31.5938 309.266 31.0312C310.766 30.2812 312.078 29.4375 313.203 28.5C315.453 30.1875 317.797 30.9375 320.234 30.75C322.484 30.5625 324.828 30 327.266 29.0625C329.516 27.9375 331.766 26.9062 334.016 25.9688C336.266 25.0312 338.516 24.75 340.766 25.125C342.078 25.3125 343.016 25.5938 343.578 25.9688C344.141 26.3438 344.891 26.7188 345.828 27.0938C348.641 28.2188 351.922 28.7812 355.672 28.7812C359.422 28.5938 363.359 28.2188 367.484 27.6562C371.609 26.9062 375.641 26.1562 379.578 25.4062C383.516 24.6562 387.078 24.2812 390.266 24.2812L398.422 27.6562L399.266 25.125C402.266 25.875 405.266 26.1562 408.266 25.9688C411.453 25.7812 414.547 25.6875 417.547 25.6875C420.734 25.5 423.828 25.6875 426.828 26.25C429.828 26.625 432.734 27.75 435.547 29.625C439.109 27.1875 442.672 25.5938 446.234 24.8438C449.797 23.9062 453.359 23.5312 456.922 23.7188C460.484 23.9062 464.047 24.4688 467.609 25.4062C471.359 26.1562 475.109 26.9062 478.859 27.6562C482.047 25.4062 485.234 24.9375 488.422 26.25C488.609 27.1875 489.078 28.125 489.828 29.0625C490.766 30 491.516 30.9375 492.078 31.875C492.641 32.625 492.922 33.4688 492.922 34.4062C492.922 35.3438 492.266 36.2812 490.953 37.2188Z" />
</svg>
