<svg width="69" height="42" viewBox="0 0 69 42" fill="none" xmlns="http://www.w3.org/2000/svg">
<path fill-rule="evenodd" clip-rule="evenodd" d="M14.0043 0.413717H9.7981C11.0847 -0.0316506 12.3713 -0.229592 14.0043 0.413717ZM42.8046 0.41373H39.8354C40.4788 0.0178483 41.2705 -0.180093 42.4582 0.215789C42.6066 0.265275 42.7056 0.364245 42.8046 0.41373Z" fill="currentColor"/>
<path fill-rule="evenodd" clip-rule="evenodd" d="M39.143 1.05707H43.7946C44.0915 1.25501 44.3389 1.50244 44.5864 1.70038H34.3924C35.9264 1.50244 37.3615 1.60141 38.8461 1.40347C38.945 1.3045 39.044 1.15604 39.143 1.05707ZM8.36304 1.05707H15.192C15.2415 1.10655 15.3405 1.15604 15.3899 1.20552C15.7858 1.45295 16.2807 1.60141 16.7755 1.70038H7.52179C7.76922 1.45295 8.06613 1.25501 8.36304 1.05707Z" fill="currentColor"/>
<path fill-rule="evenodd" clip-rule="evenodd" d="M32.1655 2.29419H45.1306C45.2791 2.49213 45.4276 2.69007 45.576 2.9375H31.0274L32.1655 2.29419ZM6.87838 2.29419H21.724C22.2683 2.44265 22.8126 2.69008 23.258 2.9375H6.33405C6.4825 2.73956 6.68044 2.54162 6.87838 2.29419Z" fill="currentColor"/>
<path fill-rule="evenodd" clip-rule="evenodd" d="M5.93813 3.58075H25.4353C26.7714 3.72921 28.4044 3.72921 29.4436 3.58075H45.9222C46.0212 3.77869 46.1202 3.97663 46.1696 4.22406H5.59174C5.69071 3.97663 5.83916 3.77869 5.93813 3.58075Z" fill="currentColor"/>
<path fill-rule="evenodd" clip-rule="evenodd" d="M5.34443 4.81787H46.4172C46.4667 5.01581 46.5162 5.21375 46.6151 5.46118H5.14648C5.19597 5.26324 5.24545 5.0653 5.34443 4.81787Z" fill="currentColor"/>
<path fill-rule="evenodd" clip-rule="evenodd" d="M4.9981 6.10452H46.7142V6.74783H4.84964C4.89913 6.54989 4.94861 6.30246 4.9981 6.10452Z" fill="currentColor"/>
<path fill-rule="evenodd" clip-rule="evenodd" d="M4.75058 7.34171H46.7141V7.98501H4.65161C4.7011 7.78707 4.75058 7.58913 4.75058 7.34171Z" fill="currentColor"/>
<path fill-rule="evenodd" clip-rule="evenodd" d="M4.65161 8.62827H46.7636V8.87569L46.6646 9.27157H11.6785H4.65161C4.65161 9.07363 4.65161 8.82621 4.65161 8.62827Z" fill="currentColor"/>
<path fill-rule="evenodd" clip-rule="evenodd" d="M4.6022 9.91489H11.4312L11.2332 10.5582H4.6022C4.6022 10.3108 4.6022 10.1128 4.6022 9.91489Z" fill="currentColor"/>
<path fill-rule="evenodd" clip-rule="evenodd" d="M4.6022 11.152H11.0353L10.7879 11.7953H4.65169L4.6022 11.152Z" fill="currentColor"/>
<path fill-rule="evenodd" clip-rule="evenodd" d="M4.65161 12.4387H10.5898L10.3919 13.082H4.65161C4.65161 12.8345 4.65161 12.6366 4.65161 12.4387Z" fill="currentColor"/>
<path fill-rule="evenodd" clip-rule="evenodd" d="M4.6022 13.6758H10.1446L9.94661 14.3191H4.6022C4.6022 14.1211 4.6022 13.9232 4.6022 13.6758Z" fill="currentColor"/>
<path fill-rule="evenodd" clip-rule="evenodd" d="M4.45357 14.9624H9.74849L9.55055 15.6057H4.20615C4.30512 15.3583 4.3546 15.1109 4.45357 14.9624Z" fill="currentColor"/>
<path fill-rule="evenodd" clip-rule="evenodd" d="M3.95891 16.1996H9.25383L9.05589 16.8429H3.71149C3.81046 16.645 3.90943 16.3975 3.95891 16.1996Z" fill="currentColor"/>
<path fill-rule="evenodd" clip-rule="evenodd" d="M3.41431 17.4861H8.8082L8.61026 18.1295H3.1174C3.21637 17.882 3.31534 17.6841 3.41431 17.4861Z" fill="currentColor"/>
<path fill-rule="evenodd" clip-rule="evenodd" d="M2.82073 18.7232H8.41256L8.16514 19.3665H2.47433C2.57331 19.1686 2.67228 18.9707 2.82073 18.7232Z" fill="currentColor"/>
<path fill-rule="evenodd" clip-rule="evenodd" d="M2.0785 20.0099H7.96724L7.7693 20.6532H1.68262C1.83107 20.4552 1.97953 20.2078 2.0785 20.0099Z" fill="currentColor"/>
<path fill-rule="evenodd" clip-rule="evenodd" d="M0.0494852 26.2945H38.0047C37.8562 26.4924 37.7572 26.6904 37.6088 26.9378H0C0.0494852 26.7399 0.0494852 26.5419 0.0494852 26.2945Z" fill="currentColor"/>
<path fill-rule="evenodd" clip-rule="evenodd" d="M0 27.5811H37.2624C37.1634 27.7791 37.0644 28.0265 36.916 28.2244H0C0 28.0265 0 27.7791 0 27.5811Z" fill="currentColor"/>
<path fill-rule="evenodd" clip-rule="evenodd" d="M0 28.8677H36.6191C36.5201 29.0656 36.3717 29.313 36.2727 29.511H0C0 29.2636 0 29.0656 0 28.8677Z" fill="currentColor"/>
<path fill-rule="evenodd" clip-rule="evenodd" d="M34.7884 30.1049H35.9266C35.8276 30.2039 35.7781 30.3523 35.6791 30.4513C35.3822 30.3028 35.0853 30.2039 34.7884 30.1049ZM0 30.1049H32.0664C31.5716 30.2533 31.1262 30.4513 30.7303 30.7482H0C0 30.5503 0 30.3028 0 30.1049Z" fill="currentColor"/>
<path fill-rule="evenodd" clip-rule="evenodd" d="M0.049408 31.3915H29.889C29.6416 31.5895 29.3942 31.7874 29.1467 32.0348H0.049408C0.049408 31.7874 0.049408 31.5895 0.049408 31.3915Z" fill="currentColor"/>
<path fill-rule="evenodd" clip-rule="evenodd" d="M7.17557 32.6286H28.5037L28.3058 32.8265L28.1078 33.2719H8.85807C8.61064 33.0739 8.36321 32.9255 8.0663 32.8265C7.76939 32.7275 7.47248 32.6781 7.17557 32.6286Z" fill="currentColor"/>
<path fill-rule="evenodd" clip-rule="evenodd" d="M9.55066 33.9152H27.7117C27.6128 34.1131 27.5138 34.3111 27.3653 34.5585H10.1445C9.99603 34.3111 9.79809 34.1131 9.55066 33.9152Z" fill="currentColor"/>
<path fill-rule="evenodd" clip-rule="evenodd" d="M10.5404 35.1524H27.019C26.92 35.3503 26.7716 35.5977 26.6231 35.7957H10.8373C10.7383 35.5977 10.6394 35.3998 10.5404 35.1524Z" fill="currentColor"/>
<path fill-rule="evenodd" clip-rule="evenodd" d="M11.2333 36.439H26.2768C26.1283 36.637 25.9799 36.8844 25.8314 37.0823H11.6292C11.5302 36.8349 11.3817 36.637 11.2333 36.439Z" fill="currentColor"/>
<path fill-rule="evenodd" clip-rule="evenodd" d="M12.124 37.6761H25.386C25.1881 37.9235 24.9902 38.1215 24.7922 38.3194H12.7178C12.4704 38.1215 12.3219 37.9235 12.124 37.6761Z" fill="currentColor"/>
<path fill-rule="evenodd" clip-rule="evenodd" d="M13.361 38.9627H24.0003C23.5549 39.2101 23.1096 39.3586 22.7137 39.2596C22.6147 39.2596 22.4662 39.3586 22.3178 39.606H14.2022C13.8558 39.3586 13.6084 39.1606 13.361 38.9627Z" fill="currentColor"/>
<path fill-rule="evenodd" clip-rule="evenodd" d="M15.0928 40.1999H21.8228C21.6248 40.4473 21.3774 40.6947 21.0805 40.8432H16.1814C16.132 40.8432 16.0825 40.7937 16.033 40.7937C15.6866 40.5958 15.3897 40.3978 15.0928 40.1999Z" fill="currentColor"/>
<path fill-rule="evenodd" clip-rule="evenodd" d="M16.9238 41.0906H20.1899C19.1507 41.3875 18.062 41.3875 16.9238 41.0906Z" fill="currentColor"/>
<path fill-rule="evenodd" clip-rule="evenodd" d="M12.9653 10.5087L8.85801 22.5336H0.297058L0.346543 25.4532H12.0745L14.1034 20.0099L14.7467 20.0593L15.2911 25.4037H19.1509L24.4953 10.4592H20.5365L18.5571 16.3479H17.9633L16.6272 10.5087H12.9653Z" fill="currentColor"/>
<path fill-rule="evenodd" clip-rule="evenodd" d="M27.0683 10.5087L21.7238 25.4037H25.6332L30.7796 10.4592L27.0683 10.5087Z" fill="currentColor"/>
<path fill-rule="evenodd" clip-rule="evenodd" d="M50.5736 10.5087L45.6251 22.3357H41.6662L40.4291 25.4037H48.1983L53.1963 13.4778H57.3036L58.4912 10.4592L50.5736 10.5087Z" fill="currentColor"/>
<path fill-rule="evenodd" clip-rule="evenodd" d="M60.3223 10.5087L55.3737 22.3357H51.4149L50.1778 25.4037H57.947L62.945 13.4778H67.0523L68.2399 10.4592L60.3223 10.5087Z" fill="currentColor"/>
<path fill-rule="evenodd" clip-rule="evenodd" d="M32.8584 22.1873H34.9368C36.4213 22.1873 37.2626 21.5934 37.4605 20.4553C37.51 20.0594 37.51 19.713 37.312 19.5151C37.1636 19.2676 36.7182 19.1687 36.0749 19.1687H33.947L32.8584 22.1873ZM35.0359 16.348H36.372C36.9658 16.348 37.4112 16.2985 37.7081 16.1995C38.0545 16.1006 38.3514 15.9026 38.5988 15.6057C38.8462 15.3088 38.9947 15.0119 39.0442 14.715C39.0937 14.3686 39.0442 14.0717 38.8957 13.8737C38.7473 13.6758 38.3514 13.5768 37.7081 13.5768H36.0256L35.0359 16.348ZM33.2046 10.5087H39.0439C39.7367 10.5087 40.3305 10.5582 40.7759 10.6077C41.2212 10.7067 41.6171 10.8551 42.013 11.152C42.3594 11.4489 42.6563 11.8448 42.8048 12.3397C42.9532 12.8345 42.9532 13.3789 42.8543 13.9727C42.7058 14.715 42.4089 15.4078 41.914 16.1006C41.4192 16.7439 40.7264 17.2387 39.8357 17.5356V17.5851C41.1223 18.08 41.5676 19.1192 41.2707 20.7027C41.0728 21.8903 40.4295 22.9295 39.4398 23.9192C38.4501 24.8595 37.1635 25.3543 35.5799 25.3543H27.7613L33.2046 10.5087Z" fill="currentColor"/>
</svg>
